<svg xmlns="http://www.w3.org/2000/svg" viewBox="0 0 768 768" role="img" aria-label="EspaOil app icon">
  <defs>
    <linearGradient id="pinGrad" x1="0" y1="0" x2="1" y2="1">
      <stop offset="0%" stop-color="#ff5c53"/>
      <stop offset="100%" stop-color="#f04d45"/>
    </linearGradient>
    <radialGradient id="centerGrad" cx="50%" cy="40%" r="60%">
      <stop offset="0%" stop-color="#ffd24a"/>
      <stop offset="100%" stop-color="#f2bf2d"/>
    </radialGradient>
  </defs>

  <path
    fill="url(#pinGrad)"
    d="M384 92c-124 0-224 100-224 224 0 87 46 153 101 228l106 147c7 9 21 9 28 0l106-147c55-75 101-141 101-228 0-124-100-224-224-224z"
  />

  <circle cx="384" cy="344" r="145" fill="url(#centerGrad)"/>

  <g fill="#f7f7f7">
    <rect x="286" y="260" width="148" height="194" rx="18"/>
    <rect x="309" y="279" width="102" height="55" rx="8" fill="#f2bf2d"/>
    <rect x="267" y="442" width="180" height="14" rx="7"/>
    <path d="M447 350h18c12 0 22 10 22 22v50c0 14-11 25-25 25-14 0-25-11-25-25v-38h18v38c0 4 3 7 7 7s7-3 7-7v-50c0-2-2-4-4-4h-18z"/>
    <path d="M477 283c14 8 25 19 33 32 5 8 2 18-6 23-8 5-18 2-23-6-6-10-14-18-25-24-8-5-11-16-6-24 5-8 16-11 24-6z"/>
  </g>
</svg>
